<?xml version="1.0" standalone="no"?>
<!DOCTYPE svg PUBLIC "-//W3C//DTD SVG 20010904//EN"
 "http://www.w3.org/TR/2001/REC-SVG-20010904/DTD/svg10.dtd">
<svg version="1.0" xmlns="http://www.w3.org/2000/svg"
 width="700.000000pt" height="700.000000pt" viewBox="0 0 700.000000 700.000000"
 preserveAspectRatio="xMidYMid meet">
<metadata>
Created by potrace 1.14, written by Peter Selinger 2001-2017
</metadata>
<g transform="translate(0.000000,700.000000) scale(0.100000,-0.100000)"
fill="#000000" stroke="none">
<path d="M3467 6564 c-1 -1 -72 -4 -157 -8 -85 -3 -168 -8 -185 -10 -16 -2
-57 -7 -90 -11 -33 -3 -71 -8 -85 -10 -352 -54 -618 -125 -905 -240 -830 -333
-1486 -942 -1809 -1680 -94 -215 -178 -493 -202 -673 -3 -26 -8 -55 -10 -65
-19 -101 -26 -501 -11 -642 26 -242 81 -462 183 -740 53 -145 261 -516 361
-643 114 -147 178 -222 276 -325 l29 -30 -11 -91 c-6 -50 -13 -104 -16 -121
-67 -372 -146 -663 -260 -956 -31 -79 -58 -153 -59 -164 -4 -34 15 -74 47
-101 27 -23 37 -25 81 -20 28 3 63 7 79 10 15 4 37 8 50 10 12 2 49 9 82 15
33 6 74 14 90 17 17 2 111 23 210 45 453 100 897 244 1220 393 l99 47 109 -26
c313 -75 574 -105 917 -105 219 0 425 13 550 35 14 3 43 7 65 11 34 4 211 37
267 49 73 16 302 81 388 110 522 181 984 464 1351 828 115 113 147 149 286
321 83 103 221 322 296 472 90 179 187 438 212 564 2 8 10 42 18 75 18 68 21
84 44 245 17 123 24 489 10 612 -38 353 -128 661 -281 967 -378 753 -1092
1347 -1966 1634 -171 57 -264 82 -410 113 -99 21 -276 49 -365 59 -33 4 -71 9
-85 11 -32 5 -409 22 -413 18z m288 -448 c66 -5 127 -9 136 -11 9 -2 40 -6 70
-10 397 -46 853 -195 1203 -391 621 -347 1082 -884 1282 -1494 52 -159 87
-315 99 -445 4 -38 9 -81 11 -95 5 -32 5 -291 -1 -350 -11 -114 -16 -154 -31
-232 -95 -513 -383 -1012 -805 -1394 -101 -92 -122 -109 -222 -183 -311 -230
-685 -411 -1065 -512 -123 -33 -124 -33 -231 -55 -115 -22 -159 -30 -246 -40
-33 -3 -68 -8 -77 -10 -122 -22 -627 -22 -758 0 -14 3 -47 7 -75 11 -130 16
-340 56 -464 90 -66 17 -189 13 -246 -8 -22 -8 -71 -31 -110 -50 -251 -123
-756 -291 -1086 -361 -15 -3 -15 1 -2 43 35 116 98 396 118 526 2 11 9 54 15
95 6 41 14 86 16 100 3 14 7 68 9 121 6 153 -32 238 -169 384 -372 392 -617
896 -671 1375 -3 30 -8 73 -10 95 -17 147 -4 393 30 583 117 664 546 1282
1175 1693 350 229 800 407 1195 474 17 2 41 7 55 10 42 8 75 13 136 20 33 4
70 9 84 11 14 2 77 7 140 10 63 4 116 7 117 8 5 4 270 -2 378 -8z"/>
<path d="M2395 4374 c-5 -1 -43 -10 -83 -19 -250 -57 -458 -250 -526 -487 -27
-92 -28 -99 -32 -208 -4 -158 32 -286 122 -421 102 -154 281 -274 464 -309
154 -30 354 0 486 74 24 14 44 23 44 21 0 -7 -58 -135 -87 -190 -40 -78 -128
-200 -214 -297 -76 -86 -95 -132 -85 -200 8 -53 55 -114 102 -134 46 -19 113
-17 156 4 96 49 292 309 398 527 106 216 145 387 145 625 0 178 -10 252 -55
390 -127 392 -392 617 -735 625 -49 1 -94 1 -100 -1z"/>
<path d="M4168 4375 c-2 -2 -23 -5 -48 -8 -287 -33 -542 -274 -606 -572 -13
-64 -12 -231 3 -299 100 -472 622 -718 1051 -496 28 15 52 24 52 19 0 -4 -4
-11 -10 -14 -5 -3 -10 -13 -10 -22 0 -23 -82 -183 -130 -254 -23 -33 -76 -101
-118 -150 -103 -122 -122 -154 -121 -209 1 -164 201 -241 316 -121 143 148
259 313 340 481 72 150 69 144 92 225 49 172 56 225 55 425 0 144 -4 179 -28
275 -66 269 -201 484 -378 602 -67 44 -190 94 -268 109 -36 6 -187 14 -192 9z"/>
</g>
</svg>
